<svg xmlns="http://www.w3.org/2000/svg" width="1920" height="1084" viewBox="0 0 1920 1084">
    <defs>
        <linearGradient id="gllrp533fa" x1="50%" x2="50%" y1="0%" y2="82.848%">
            <stop offset="0%" stop-color="#8CFFC7"/>
            <stop offset="100%" stop-color="#F2C754"/>
        </linearGradient>
    </defs>
    <g fill="none" fill-rule="evenodd">
        <g>
            <g>
                <path fill="url(#gllrp533fa)" fill-opacity=".5" d="M0 8H1920V1084H0z" transform="translate(0 2) translate(0 -2)"/>
                <path fill="#FFF" fill-opacity=".3" fill-rule="nonzero" d="M391.5 994.001c21.77 0 42.238 8.476 57.63 23.87 15.394 15.393 23.87 35.86 23.87 57.63l-.002.499-25.142.001c-11.447-4.366-21.985-10.77-31.241-19L398 1075.306l.707.694h-14.016l.31-.304-47.486-46.695c-10.318 11.676-16.405 26.116-17.515 41.535 6.09 1.296 11.993 3.126 17.66 5.464h-27.658l-.002-.499c0-21.77 8.476-42.237 23.87-57.63 15.393-15.394 35.86-23.87 57.63-23.87zm665-11c21.77 0 42.237 8.476 57.63 23.87 15.394 15.393 23.87 35.86 23.87 57.63 0 3.882-.27 7.722-.8 11.5h-9.977c.36-2.155.619-4.335.777-6.535-17.35-3.692-33.174-11.717-46.385-23.465L1063 1064.306l11.893 11.694h-13.672l-4.916-4.999-4.917 4.999h-12.884l11.496-11.304-47.485-46.695c-10.318 11.676-16.405 26.116-17.515 41.535 13.65 2.904 26.356 8.492 37.588 16.463H1002.4c-5.545-2.561-11.364-4.57-17.4-5.998.152 2.019.391 4.02.715 6H975.8c-.53-3.778-.8-7.618-.8-11.5 0-21.77 8.476-42.237 23.87-57.63 15.393-15.394 35.86-23.87 57.63-23.87zm-610.99 46l-21.51 20.99c11.205 9.783 24.47 16.574 39 20.01-1.15-15.23-7.228-29.47-17.49-41zm-58.975-25c-15.184 1.092-29.4 7.005-40.977 17.027l-.558.488 46.695 47.485L410 1050.387c-11.748-13.212-19.773-29.047-23.465-46.386zm1248.965-102c21.77 0 42.237 8.476 57.63 23.87 15.394 15.393 23.87 35.86 23.87 57.63 0 21.77-8.476 42.237-23.87 57.63-15.393 15.394-35.86 23.87-57.63 23.87-21.77 0-42.237-8.476-57.63-23.87-15.394-15.393-23.87-35.86-23.87-57.63 0-21.77 8.476-42.237 23.87-57.63 15.393-15.394 35.86-23.87 57.63-23.87zm-524.99 116l-21.51 20.99c11.205 9.783 24.47 16.574 39 20.01-1.15-15.23-7.228-29.47-17.49-41zm-58.975-25c-15.184 1.092-29.4 7.005-40.977 17.027l-.558.488 46.695 47.485 18.305-18.614c-11.748-13.212-19.773-29.047-23.465-46.386zm583.77-3L1617 1008.615c11.748 13.212 19.773 29.047 23.465 46.386 15.184-1.092 29.4-7.005 40.977-17.027l.558-.488L1635.305 990zm-25.315 26L1589 1037.51c11.531 10.273 25.77 16.341 41 17.491-3.436-14.53-10.227-27.795-20.01-39zm-1212.99-12c3.37 14.25 9.967 27.284 19.449 38.351l.561.649 20.99-21.51c-11.53-10.272-25.77-16.34-41-17.49zm665-11c3.37 14.25 9.967 27.284 19.449 38.351l.561.649 20.99-21.51c-11.53-10.272-25.77-16.34-41-17.49zm502-4c1.131 14.984 7.034 29.01 16.998 40.44l.493.56 21.51-20.99c-11.216-9.783-24.482-16.574-39-20.01zm96.615-24L1642 983.306l47.485 46.695c10.318-11.676 16.406-26.116 17.515-41.535-17.35-3.692-33.174-11.717-46.385-23.465zm-79.1-28c-10.318 11.676-16.405 26.116-17.515 41.535 17.055 3.63 32.637 11.446 45.712 22.87l.674.595L1629 983.696l-47.485-46.695zm107.994 0L1668 957.991c11.205 9.783 24.47 16.574 39 20.01-1.15-15.23-7.228-29.47-17.49-41zm-58.974-25c-15.184 1.092-29.4 7.005-40.977 17.027l-.558.488 46.695 47.485L1654 958.387c-11.748-13.212-19.773-29.047-23.465-46.386zm10.465 0c3.37 14.25 9.967 27.284 19.449 38.351l.561.649 20.99-21.509c-11.53-10.273-25.77-16.342-41-17.491zm-702.5-206c21.77 0 42.238 8.476 57.63 23.87 15.394 15.393 23.87 35.86 23.87 57.63 0 21.77-8.476 42.237-23.87 57.63-15.392 15.394-35.86 23.87-57.63 23.87-21.77 0-42.237-8.476-57.63-23.87-15.394-15.393-23.87-35.86-23.87-57.63 0-21.77 8.476-42.237 23.87-57.63C896.262 714.476 916.73 706 938.5 706zm-.195 88L920 812.615c11.748 13.212 19.773 29.047 23.465 46.386 15.184-1.092 29.4-7.005 40.977-17.027l.558-.488L938.305 794zm-25.315 26L892 841.51c11.531 10.273 25.77 16.341 41 17.491-3.436-14.53-10.227-27.795-20.01-39zm50.625-51L945 787.306 992.485 834c10.318-11.676 16.406-26.116 17.515-41.535-17.35-3.692-33.174-11.717-46.385-23.465zm-96.615 24c1.131 14.984 7.034 29.01 16.998 40.44l.493.56 21.51-20.99c-11.216-9.783-24.482-16.574-39-20.01zm1053-113.127v10.955c-5.514 2.677-10.7 6.093-15.442 10.199l-.558.488 16 16.27v14.309l-23.485-23.094c-10.318 11.676-16.405 26.116-17.515 41.535 15.051 3.203 28.955 9.667 41 18.994v23.584l-16 16.396c4.89 4.357 10.267 7.957 16 10.747v10.87c-10.036-4.045-19.249-10.113-27.13-17.995-15.394-15.394-23.87-35.86-23.87-57.631 0-21.77 8.476-42.237 23.87-57.63 7.881-7.883 17.094-13.951 27.13-17.997zM884.515 741.001c-10.318 11.676-16.405 26.116-17.515 41.535 17.055 3.63 32.637 11.446 45.712 22.87l.674.595L932 787.696l-47.485-46.695zm994.485 20c1.131 14.984 7.034 29.01 16.998 40.44l.493.56 21.51-20.99c-11.216-9.783-24.482-16.574-39-20.01zm-886.49-20L971 761.991c11.205 9.783 24.47 16.574 39 20.01-1.15-15.23-7.228-29.47-17.49-41zm-58.975-25c-15.184 1.092-29.4 7.005-40.977 17.027l-.558.488 46.695 47.485L957 762.387c-11.748-13.212-19.773-29.047-23.465-46.386zm-334.035-104c21.77 0 42.238 8.476 57.63 23.87C672.525 651.263 681 671.73 681 693.5c0 21.77-8.476 42.237-23.87 57.63-15.392 15.394-35.86 23.87-57.63 23.87-21.77 0-42.237-8.476-57.63-23.87-15.394-15.393-23.87-35.86-23.87-57.63 0-21.77 8.476-42.237 23.87-57.63C557.262 620.476 577.73 612 599.5 612zm-.195 88L581 718.615c11.748 13.212 19.773 29.047 23.465 46.386 15.184-1.092 29.4-7.005 40.977-17.027l.558-.488L599.305 700zm-25.315 26L553 747.51c11.531 10.273 25.77 16.341 41 17.491-3.436-14.53-10.227-27.795-20.01-39zm370.01-10c3.37 14.25 9.967 27.284 19.449 38.351l.561.649L985 733.492c-11.53-10.273-25.77-16.342-41-17.491zm387.5-137c21.77 0 42.237 8.476 57.63 23.87 15.394 15.393 23.87 35.86 23.87 57.63 0 21.77-8.476 42.237-23.87 57.63-15.393 15.394-35.86 23.87-57.63 23.87-21.77 0-42.237-8.476-57.63-23.87-15.394-15.393-23.87-35.86-23.87-57.63 0-21.77 8.476-42.237 23.87-57.63 15.393-15.394 35.86-23.87 57.63-23.87zm-803.5 120c1.131 14.984 7.034 29.01 16.998 40.44l.493.56 21.51-20.99c-11.216-9.783-24.482-16.574-39-20.01zm96.615-24L606 693.306 653.485 740c10.318-11.676 16.406-26.116 17.515-41.535-17.35-3.692-33.174-11.717-46.385-23.465zm706.69-8L1313 685.615c11.748 13.212 19.773 29.047 23.465 46.386 15.184-1.092 29.4-7.005 40.977-17.027l.558-.488L1331.305 667zm-25.315 26L1285 714.51c11.531 10.273 25.77 16.341 41 17.491-3.436-14.53-10.227-27.795-20.01-39zm-760.475-46c-10.318 11.676-16.405 26.116-17.515 41.535 17.055 3.63 32.637 11.446 45.712 22.87l.674.595L593 693.696l-47.485-46.695zm714.485 19c1.131 14.984 7.034 29.01 16.998 40.44l.493.56 21.51-20.99c-11.216-9.783-24.482-16.574-39-20.01zm96.615-24L1338 660.306 1385.485 707c10.318-11.676 16.406-26.116 17.515-41.535-17.35-3.692-33.174-11.717-46.385-23.465zm-703.106 5L632 667.991c11.205 9.783 24.47 16.574 39 20.01-1.15-15.23-7.228-29.47-17.49-41zm-58.974-25c-15.184 1.092-29.4 7.005-40.977 17.027l-.558.488 46.695 47.485L618 668.387c-11.748-13.212-19.773-29.047-23.465-46.386zm682.98-8c-10.318 11.676-16.405 26.116-17.515 41.535 17.055 3.63 32.637 11.446 45.712 22.87l.674.595L1325 660.696l-47.485-46.695zm-672.515 8c3.37 14.25 9.967 27.284 19.449 38.351l.561.649L646 639.492c-11.53-10.273-25.77-16.342-41-17.491zm780.51-8l-21.51 20.99c11.205 9.783 24.47 16.574 39 20.01-1.15-15.23-7.228-29.47-17.49-41zm-58.975-25c-15.184 1.092-29.4 7.005-40.977 17.027l-.558.488 46.695 47.485L1350 635.387c-11.748-13.212-19.773-29.047-23.465-46.386zm10.465 0c3.37 14.25 9.967 27.284 19.449 38.351l.561.649 20.99-21.509c-11.53-10.273-25.77-16.342-41-17.491zm-1026.5-214c21.77 0 42.238 8.476 57.63 23.87C383.525 414.263 392 434.73 392 456.5c0 21.77-8.476 42.237-23.87 57.63-15.392 15.394-35.86 23.87-57.63 23.87-21.77 0-42.237-8.476-57.63-23.87-15.394-15.393-23.87-35.86-23.87-57.63 0-21.77 8.476-42.237 23.87-57.63C268.262 383.476 288.73 375 310.5 375zm-25.51 114L264 510.51c11.531 10.273 25.77 16.341 41 17.491-3.436-14.53-10.227-27.795-20.01-39zm25.315-26L292 481.615c11.748 13.212 19.773 29.047 23.465 46.386 15.184-1.092 29.4-7.005 40.977-17.027l.558-.488L310.305 463zm25.31-25L317 456.306 364.485 503c10.318-11.676 16.406-26.116 17.515-41.535-17.35-3.692-33.174-11.717-46.385-23.465zm-96.615 24c1.131 14.984 7.034 29.01 16.998 40.44l.493.56 21.51-20.99c-11.216-9.783-24.482-16.574-39-20.01zm1435.5-122c21.77 0 42.237 8.476 57.63 23.87 15.394 15.393 23.87 35.86 23.87 57.63 0 21.77-8.476 42.237-23.87 57.63-15.393 15.394-35.86 23.87-57.63 23.87-21.77 0-42.237-8.476-57.63-23.87-15.394-15.393-23.87-35.86-23.87-57.63 0-21.77 8.476-42.237 23.87-57.63 15.393-15.394 35.86-23.87 57.63-23.87zm-25.51 114L1628 475.51c11.531 10.273 25.77 16.341 41 17.491-3.436-14.53-10.227-27.795-20.01-39zm25.315-26L1656 446.615c11.748 13.212 19.773 29.047 23.465 46.386 15.184-1.092 29.4-7.005 40.977-17.027l.558-.488L1674.305 428zm-1417.79-18c-10.318 11.676-16.405 26.116-17.515 41.535 17.055 3.63 32.637 11.446 45.712 22.87l.674.595L304 456.696l-47.485-46.695zm1443.1-7L1681 421.306 1728.485 468c10.318-11.676 16.406-26.116 17.515-41.535-17.35-3.692-33.174-11.717-46.385-23.465zm-96.615 24c1.131 14.984 7.034 29.01 16.998 40.44l.493.56 21.51-20.99c-11.216-9.783-24.482-16.574-39-20.01zm-1238.49-17L343 430.991c11.205 9.783 24.47 16.574 39 20.01-1.15-15.23-7.228-29.47-17.49-41zm-58.975-25c-15.184 1.092-29.4 7.005-40.977 17.027l-.558.488 46.695 47.485L329 431.387c-11.748-13.212-19.773-29.047-23.465-46.386zm713.965-106c21.77 0 42.237 8.476 57.63 23.87 15.394 15.393 23.87 35.86 23.87 57.63 0 21.77-8.476 42.237-23.87 57.63-15.393 15.394-35.86 23.87-57.63 23.87-21.77 0-42.237-8.476-57.63-23.87-15.394-15.393-23.87-35.86-23.87-57.63 0-21.77 8.476-42.237 23.87-57.63 15.393-15.394 35.86-23.87 57.63-23.87zm601.015 96c-10.318 11.676-16.405 26.116-17.515 41.535 17.055 3.63 32.637 11.446 45.712 22.87l.674.595L1668 421.696l-47.485-46.695zm-601.21-8L1001 385.615c11.748 13.212 19.773 29.047 23.465 46.386 15.184-1.092 29.4-7.005 40.977-17.027l.558-.488L1019.305 367zm-25.315 26L973 414.51c11.531 10.273 25.77 16.341 41 17.491-3.436-14.53-10.227-27.795-20.01-39zm-677.99-8c3.37 14.25 9.967 27.284 19.449 38.351l.561.649L357 402.492c-11.53-10.273-25.77-16.342-41-17.491zm1412.51-10l-21.51 20.99c11.205 9.783 24.47 16.574 39 20.01-1.15-15.23-7.228-29.47-17.49-41zm-58.975-25c-15.184 1.092-29.4 7.005-40.977 17.027l-.558.488 46.695 47.485L1693 396.387c-11.748-13.212-19.773-29.047-23.465-46.386zm-721.535 16c1.131 14.984 7.034 29.01 16.998 40.44l.493.56 21.51-20.99c-11.216-9.783-24.482-16.574-39-20.01zm96.615-24L1026 360.306 1073.485 407c10.318-11.676 16.406-26.116 17.515-41.535-17.35-3.692-33.174-11.717-46.385-23.465zm635.385 8c3.37 14.25 9.967 27.284 19.449 38.351l.561.649 20.99-21.509c-11.53-10.273-25.77-16.342-41-17.491zm-714.485-36c-10.318 11.676-16.405 26.116-17.515 41.535 17.055 3.63 32.637 11.446 45.712 22.87l.674.595L1013 360.696l-47.485-46.695zm107.994 0L1052 334.991c11.205 9.783 24.47 16.574 39 20.01-1.15-15.23-7.228-29.47-17.49-41zm-58.974-25c-15.184 1.092-29.4 7.005-40.977 17.027l-.558.488 46.695 47.485L1038 335.387c-11.748-13.212-19.773-29.047-23.465-46.386zm-993.035-102c21.77 0 42.238 8.476 57.63 23.87C94.525 226.263 103 246.73 103 268.5c0 21.77-8.476 42.237-23.87 57.63-15.392 15.394-35.86 23.87-57.63 23.87-7.364 0-14.58-.97-21.5-2.85v-10.276c5.151 1.658 10.511 2.712 16 3.126-2.945-12.452-8.354-23.977-16-34.071v-22.484l15-14.75-15-14.751v-14.007l21.695 22.063L40 243.387C28.252 230.175 20.227 214.34 16.535 197c-5.676.408-11.217 1.49-16.535 3.208V189.85c6.92-1.88 14.136-2.849 21.5-2.849zm-.195 88L3 293.615c11.748 13.212 19.773 29.047 23.465 46.386 15.184-1.092 29.4-7.005 40.977-17.027l.558-.488L21.305 275zm1003.695 14c3.37 14.25 9.967 27.284 19.449 38.351l.561.649 20.99-21.509c-11.53-10.273-25.77-16.342-41-17.491zm-978.385-39L28 268.306 75.485 315C85.803 303.325 91.891 288.885 93 273.466 75.65 269.774 59.826 261.749 46.615 250zm596.885-145c21.77 0 42.238 8.476 57.63 23.87C716.525 144.263 725 164.73 725 186.5c0 21.77-8.476 42.237-23.87 57.63-15.392 15.394-35.86 23.87-57.63 23.87-21.77 0-42.237-8.476-57.63-23.87-15.394-15.393-23.87-35.86-23.87-57.63 0-21.77 8.476-42.237 23.87-57.63C601.262 113.476 621.73 105 643.5 105zm-567.99 117L54 242.991c11.205 9.783 24.47 16.574 39 20.01-1.15-15.23-7.228-29.47-17.49-41zm567.795-29L625 211.615c11.748 13.212 19.773 29.047 23.465 46.386 15.184-1.092 29.4-7.005 40.977-17.027l.558-.488L643.305 193zm-25.315 26L597 240.51c11.531 10.273 25.77 16.341 41 17.491-3.436-14.53-10.227-27.795-20.01-39zm-590.99-22c3.37 14.25 9.967 27.284 19.449 38.351l.561.649L68 214.492c-11.53-10.273-25.77-16.342-41-17.491zm545-5c1.131 14.984 7.034 29.01 16.998 40.44l.493.56 21.51-20.99c-11.216-9.783-24.482-16.574-39-20.01zm96.615-24L650 186.306 697.485 233c10.318-11.676 16.406-26.116 17.515-41.535-17.35-3.692-33.174-11.717-46.385-23.465zm-79.1-28c-10.318 11.676-16.405 26.116-17.515 41.535 17.055 3.63 32.637 11.446 45.712 22.87l.674.595L637 186.696l-47.485-46.695zm838.985-102c21.77 0 42.237 8.476 57.63 23.87 15.394 15.393 23.87 35.86 23.87 57.63 0 21.77-8.476 42.237-23.87 57.63-15.393 15.394-35.86 23.87-57.63 23.87-21.77 0-42.237-8.476-57.63-23.87-15.394-15.393-23.87-35.86-23.87-57.63 0-21.77 8.476-42.237 23.87-57.63C1386.262 46.476 1406.73 38 1428.5 38zm-.195 88L1410 144.615c11.748 13.212 19.773 29.047 23.465 46.386 15.184-1.092 29.4-7.005 40.977-17.027l.558-.488L1428.305 126zm-25.315 26L1382 173.51c11.531 10.273 25.77 16.341 41 17.491-3.436-14.53-10.227-27.795-20.01-39zm-705.48-12L676 160.991c11.205 9.783 24.47 16.574 39 20.01-1.15-15.23-7.228-29.47-17.49-41zm-58.975-25c-15.184 1.092-29.4 7.005-40.977 17.027l-.558.488 46.695 47.485L662 161.387c-11.748-13.212-19.773-29.047-23.465-46.386zm815.08-14L1435 119.306 1482.485 166c10.318-11.676 16.406-26.116 17.515-41.535-17.35-3.692-33.174-11.717-46.385-23.465zm-96.615 24c1.131 14.984 7.034 29.01 16.998 40.44l.493.56 21.51-20.99c-11.216-9.783-24.482-16.574-39-20.01zm-708-10c3.37 14.25 9.967 27.284 19.449 38.351l.561.649L690 132.492c-11.53-10.273-25.77-16.342-41-17.491zm725.515-42c-10.318 11.676-16.405 26.116-17.515 41.535 17.055 3.63 32.637 11.446 45.712 22.87l.674.595L1422 119.696l-47.485-46.695zM1101 38.501c0 21.77-8.476 42.237-23.87 57.63-15.393 15.394-35.86 23.87-57.63 23.87-21.77 0-42.237-8.476-57.63-23.87C946.475 80.739 938 60.272 938 38.502c0-13.657 3.336-26.801 9.622-38.502h11.765C952.783 10.01 948.868 21.474 948 33.537c17.055 3.63 32.637 11.446 45.712 22.87l.674.595L1013 38.696 973.65 0h14.577l31.47 32.001L1038 13.387c-3.742-4.209-7.106-8.683-10.073-13.387h12.274c1.344 1.831 2.76 3.616 4.248 5.352l.561.649L1050.865 0h14.447L1052 12.991c11.205 9.783 24.47 16.574 39 20.01-.896-11.874-4.789-23.145-11.324-33.001h11.702C1097.665 11.7 1101 24.843 1101 38.5zm-709 0c0 21.77-8.476 42.237-23.87 57.63-15.392 15.394-35.86 23.87-57.63 23.87-21.77 0-42.237-8.476-57.63-23.87C237.475 80.739 229 60.272 229 38.502c0-13.657 3.336-26.801 9.622-38.502h11.765C243.783 10.01 239.868 21.474 239 33.537c17.055 3.63 32.637 11.446 45.712 22.87l.674.595L304 38.696 264.65 0h14.577l31.47 32.001L329 13.387C325.258 9.178 321.894 4.704 318.927 0h12.274c1.344 1.831 2.76 3.616 4.248 5.352l.561.649L341.865 0h14.447L343 12.991c11.205 9.783 24.47 16.574 39 20.01-.896-11.874-4.789-23.145-11.324-33.001h11.702C388.665 11.7 392 24.843 392 38.5zm1090.51 34.5L1461 93.991c11.205 9.783 24.47 16.574 39 20.01-1.15-15.23-7.228-29.47-17.49-41zm-58.975-25c-15.184 1.092-29.4 7.005-40.977 17.027l-.558.488 46.695 47.485L1447 94.387c-11.748-13.212-19.773-29.047-23.465-46.386zm-1138.545 23L264 92.51c11.531 10.273 25.77 16.341 41 17.491-3.436-14.53-10.227-27.795-20.01-39zm709 0L973 92.51c11.531 10.273 25.77 16.341 41 17.491-3.436-14.53-10.227-27.795-20.01-39zm25.315-26L1001 63.615c11.748 13.212 19.773 29.047 23.465 46.386 15.184-1.092 29.4-7.005 40.977-17.027l.558-.488L1019.305 45zm-709 0L292 63.615c11.748 13.212 19.773 29.047 23.465 46.386 15.184-1.092 29.4-7.005 40.977-17.027l.558-.488L310.305 45zM1919 23.501c0 21.77-8.476 42.237-23.87 57.63-15.393 15.394-35.86 23.87-57.63 23.87-21.77 0-42.237-8.476-57.63-23.87-15.394-15.393-23.87-35.86-23.87-57.63 0-8.077 1.167-15.975 3.42-23.5h10.47c-2.116 5.925-3.43 12.146-3.89 18.535 17.055 3.63 32.637 11.446 45.712 22.87l.674.595L1831 23.696 1806.903 0h14.074l16.718 17.001L1854.414 0l17.969.001c10.685 8.707 23.105 14.804 36.617 18-.468-6.203-1.754-12.242-3.808-18.001h10.388c2.253 7.526 3.42 15.424 3.42 23.501zm-81.695 6.5L1819 48.615c11.748 13.212 19.773 29.047 23.465 46.386 15.184-1.092 29.4-7.005 40.977-17.027l.558-.488L1837.305 30zm-25.315 26L1791 77.51c11.531 10.273 25.77 16.341 41 17.491-3.436-14.53-10.227-27.795-20.01-39zm-377.99-8c3.37 14.25 9.967 27.284 19.449 38.351l.561.649L1475 65.492c-11.53-10.273-25.77-16.342-41-17.491zm-389.385-28L1026 38.306 1073.485 85c10.318-11.676 16.406-26.116 17.515-41.535-17.35-3.692-33.174-11.717-46.385-23.465zm-709 0L317 38.306 364.485 85C374.803 73.325 380.891 58.885 382 43.466 364.65 39.774 348.826 31.749 335.615 20zm-96.615 24c1.131 14.984 7.034 29.01 16.998 40.44l.493.56 21.51-20.99c-11.216-9.783-24.482-16.574-39-20.01zm709 0c1.131 14.984 7.034 29.01 16.998 40.44l.493.56 21.51-20.99c-11.216-9.783-24.482-16.574-39-20.01zm914.615-39L1844 23.306 1891.485 70c10.318-11.676 16.406-26.116 17.515-41.535-17.35-3.692-33.174-11.717-46.385-23.465zm-96.615 24c1.131 14.984 7.034 29.01 16.998 40.44l.493.56 21.51-20.99c-11.216-9.783-24.482-16.574-39-20.01z" transform="translate(0 2) translate(0 -2)"/>
            </g>
        </g>
    </g>
</svg>
