<svg xmlns="http://www.w3.org/2000/svg" xmlns:xlink="http://www.w3.org/1999/xlink" width="271" height="177" viewBox="0 0 271 177">
    <defs>
        <filter id="37l72ochya" width="111.1%" height="110.6%" x="-5.6%" y="-3.8%" filterUnits="objectBoundingBox">
            <feOffset dy="1" in="SourceAlpha" result="shadowOffsetOuter1"/>
            <feGaussianBlur in="shadowOffsetOuter1" result="shadowBlurOuter1" stdDeviation="1"/>
            <feColorMatrix in="shadowBlurOuter1" values="0 0 0 0 0 0 0 0 0 0 0 0 0 0 0 0 0 0 0.5 0"/>
        </filter>
        <filter id="tss1m45g4c" width="110.9%" height="110.4%" x="-5.4%" y="-3.7%" filterUnits="objectBoundingBox">
            <feOffset dy="1" in="SourceAlpha" result="shadowOffsetOuter1"/>
            <feGaussianBlur in="shadowOffsetOuter1" result="shadowBlurOuter1" stdDeviation="1"/>
            <feColorMatrix in="shadowBlurOuter1" values="0 0 0 0 0 0 0 0 0 0 0 0 0 0 0 0 0 0 0.5 0"/>
        </filter>
        <filter id="6zx1byiihe" width="110.6%" height="110.4%" x="-5.3%" y="-3.7%" filterUnits="objectBoundingBox">
            <feOffset dy="1" in="SourceAlpha" result="shadowOffsetOuter1"/>
            <feGaussianBlur in="shadowOffsetOuter1" result="shadowBlurOuter1" stdDeviation="1"/>
            <feColorMatrix in="shadowBlurOuter1" values="0 0 0 0 0 0 0 0 0 0 0 0 0 0 0 0 0 0 0.5 0"/>
        </filter>
        <filter id="mswwq7ebng" width="110.7%" height="110.4%" x="-5.3%" y="-3.7%" filterUnits="objectBoundingBox">
            <feOffset dy="1" in="SourceAlpha" result="shadowOffsetOuter1"/>
            <feGaussianBlur in="shadowOffsetOuter1" result="shadowBlurOuter1" stdDeviation="1"/>
            <feColorMatrix in="shadowBlurOuter1" values="0 0 0 0 0 0 0 0 0 0 0 0 0 0 0 0 0 0 0.5 0"/>
        </filter>
        <filter id="zfvvtgfoii" width="109.6%" height="109.5%" x="-4.8%" y="-3.4%" filterUnits="objectBoundingBox">
            <feOffset dy="1" in="SourceAlpha" result="shadowOffsetOuter1"/>
            <feGaussianBlur in="shadowOffsetOuter1" result="shadowBlurOuter1" stdDeviation="1"/>
            <feColorMatrix in="shadowBlurOuter1" values="0 0 0 0 0 0 0 0 0 0 0 0 0 0 0 0 0 0 0.5 0"/>
        </filter>
        <filter id="cw3wg8pl8k" width="110.8%" height="110.6%" x="-5.4%" y="-3.8%" filterUnits="objectBoundingBox">
            <feOffset dy="1" in="SourceAlpha" result="shadowOffsetOuter1"/>
            <feGaussianBlur in="shadowOffsetOuter1" result="shadowBlurOuter1" stdDeviation="1"/>
            <feColorMatrix in="shadowBlurOuter1" values="0 0 0 0 0 0 0 0 0 0 0 0 0 0 0 0 0 0 0.5 0"/>
        </filter>
        <filter id="vc9av5rlrm" width="110.8%" height="111%" x="-5.4%" y="-3.9%" filterUnits="objectBoundingBox">
            <feOffset dy="1" in="SourceAlpha" result="shadowOffsetOuter1"/>
            <feGaussianBlur in="shadowOffsetOuter1" result="shadowBlurOuter1" stdDeviation="1"/>
            <feColorMatrix in="shadowBlurOuter1" values="0 0 0 0 0 0 0 0 0 0 0 0 0 0 0 0 0 0 0.5 0"/>
        </filter>
        <filter id="tm0e360n2o" width="125.4%" height="127%" x="-12.7%" y="-9.6%" filterUnits="objectBoundingBox">
            <feOffset dy="1" in="SourceAlpha" result="shadowOffsetOuter1"/>
            <feGaussianBlur in="shadowOffsetOuter1" result="shadowBlurOuter1" stdDeviation="1"/>
            <feColorMatrix in="shadowBlurOuter1" values="0 0 0 0 0 0 0 0 0 0 0 0 0 0 0 0 0 0 0.5 0"/>
        </filter>
        <path id="9y2xqcan0b" d="M40.18 35.466l-1.741 3.337H61.42v50.53H0l6.15-50.519h16.521l1.73-3.348H4.143l2.074-12.015H63.06v12.015h-22.88zM48 76.652v-6.609H15.845l-.737 6.609h32.894zm0-25.899H17.919l-.737 6.554H48v-6.554z"/>
        <path id="m94yus7ecd" d="M105.967 64.314h22.923v25.03h-17.64l.333-2.14h-3.613l-.267-3.13-25.138 1.092V76.86l9.229-.464.13-4.675h-9.823l-2.276 17.625H65.853l3.34-25.03h23.07l.065-2.273H70.465l3.542-25.227h52.907v25.227h-20.881l-.066 2.272zm24.336-40.246v9.077h-7.286v1.802h-13.71v-1.802h-17.78l-.405 1.802H77.418l.404-1.802h-6.49l2.096-9.077h6.217l.404-1.803h13.77l-.399 1.803h15.91v-1.803h13.71v1.803h7.263zM92.596 54.969l.13-2.403h-7.018l-.333 2.403h7.22zm-5.753-11.278l-.332 2.403h6.418l.136-2.403h-6.222zm28.348 28.029h-9.96l-.202 4.74 2.674-.136-.268-3.337h5.884l.606 7.411h1.266V71.72zm-2.14-16.75v-2.404h-6.614l-.137 2.403h6.751zm0-11.279h-6.281l-.137 2.403h6.418v-2.403z"/>
        <path id="as05xno26f" d="M181.781 89.345L166.603 56.974 147.419 89.345 131.106 89.345 153.57 51.496 134.178 51.496 136.252 38.552 159.66 38.552 159.66 22.265 173.436 22.265 173.436 38.552 196.358 38.552 196.358 51.496 179.576 51.496 197.319 89.345z"/>
        <path id="a2pvbtey9h" d="M218.216 54.702h1.207l-3.144 34.643H203.24l1.938-21.3h-6.768l8.891-21.36h-5.949l2.276-11.945h22.922l-8.334 19.962zm2.14-4.337h5.016v20.689h-5.016V50.365zm43.547 28.166H252.05v10.814h-13.251V78.53h-13.224l3.138-47.658h10.086v-8.608h13.24v8.608h11.865V78.53zm-26.54-12.748h3.82v-5.407h-3.542l-.279 5.407zm1.134-22.895l-.267 5.342h2.942v-5.342h-2.675zm14.976 0h-3.345v5.342h3.345v-5.342zm0 22.895v-5.407h-3.345v5.407h3.345z"/>
        <path id="wj4bxkgegj" d="M89.667 151.165l-20.434-.153-.622 10.666-7.177 8.193-17.705-10.978 8.656.311-.47-8.334-21.76-.235-.622-4.828 22.071-.775-.152-3.507-26.197-.388-1.174-7.1 26.912-.852-.158-3.277-19.888-.31-.715-5.228 9.278-.234-5.845-9.57 3.51-3.893c-4.836-.52-8.19-1.09-10.06-1.71 3.38-.364 12.453-2.312 27.218-5.844 14.765-3.531 23.969-5.945 27.611-7.242l9.518 12.016c-3.103.86-6.254 1.536-9.436 2.026l7.488 3.113c-2.463 4.064-5.859 7.481-9.906 9.968l11.62-.312-.546 9.285 4.994-.158 1.015 10.431-6.55-.076-.474 8.995zM51.528 120l-4.29 3.894 10.217-.311-5.305-8.739 2.887-3.113c-5.199-.054-10.475-.366-15.827-.934l12.318 9.203zm25.106-9.345c-5.647.653-11.323 1.018-17.007 1.093l8.973 5.374-6.151 6.319 8.836-.23c1.86-3.116 3.646-7.296 5.36-12.54l-.011-.016zm-7.095 33.638l6.784-.23-.153-2.184-6.468-.033-.163 2.447zm.71-11.731l5.457-.159-.153-2.184-5.228-.077-.077 2.42z"/>
        <path id="t8xhdyer4l" d="M124.836 146.692h10.228v13.485h-10.228v1.6h9.824v6.139h-9.824v2.14h-12.17v-2.14h-12.504l1.943-6.14h10.56v-1.6h-11.46l2.008-13.484h9.425v-1.666h-8.394l1-5.543h-2.73l2.074-5.872h1.736l.267-1.6h10.757l-.202 1.6h5.884v-1.594h10.762v1.6h2.342v5.871h-2.342v5.544h-8.956v1.66zm-20.395-15.948l2.008-4.915h18.25v4.915h-20.258zm60.717-19.481v7.466h-13.644v-2.272h-10.032v14.287h-13.775v-14.287h-8.088l-.6 2.272h-13.896l2.33-7.466h20.254v-1.202h-20.194l2.009-5.898h54.424v5.887h-22.464v1.213h23.676zM124.7 124.665h-19.255l2.074-4.735h17.18v4.735zm-13.503 30.17h3.275v-2.867h-2.942l-.333 2.867zm5.349-15.352l-.202 1.54h6.686v-1.54h-6.484zm9.491 12.485h-3.007v2.867h3.007v-2.867zm11.701-19.023h26.274v37.139h-15.178l2.008-7.483h1.763v-2.894h-5.146l-.546 10.377h-11.227l2.052-37.139zm7.958-13.015h18.785v4.735h-20.86l2.075-4.735zm0 5.871h18.785v4.916h-20.86l2.075-4.916zm6.91 27.636v-2.851h-4.678l-.136 2.873 4.813-.022zm-4.214-12.218l-.131 2.873h4.366v-2.873h-4.235z"/>
        <path id="bzwis1gkgn" d="M169.093 118.99c.27-1.54.38-3.105.333-4.669v-2.403c.04-1.496-.05-2.993-.267-4.473 2.139.202 4.278.268 8.022.268h16.45c.027-1.009-.063-2.017-.267-3.004h11.166c-.197.99-.308 1.995-.333 3.004h17.465c3.82 0 5.949-.066 8.088-.268-.22 1.48-.31 2.977-.267 4.473v2.403c-.053 1.564.058 3.13.333 4.67h-4.945v2.403c-2.311-.211-4.632-.3-6.953-.268h-5.567v1.671h5.349c2.075.048 4.152-.041 6.216-.267v5.117c-2.065-.216-4.14-.306-6.216-.267h-5.349v1.671h11.167c2.342.035 4.685-.054 7.018-.268v6.674c-2.328-.283-4.674-.394-7.018-.333h-4.416c3.97 1.876 8.176 3.201 12.504 3.938-1.645 2.47-2.971 5.138-3.946 7.941-3.275-1.201-4.41-1.737-6.347-2.6v7.74c0 4.369.065 5.805.267 7.143-2.183-.136-2.729-.136-6.686-.136h-1.091c4.279 1.136 9.824 1.802 17.383 2.14-2.877 2.802-4.012 4.2-5.753 7.204-9.96-1.398-15.98-3.069-23.2-6.674l6.003-2.67H189.75l6.15 2.605c-7.095 3.823-12.552 5.461-22.376 6.74-1.54-2.404-2.73-3.867-5.753-6.942 7.641-.333 12.771-1.092 16.92-2.403h-.732c-3.88 0-4.415 0-6.757.136.226-2.151.315-4.315.268-6.477v-7.985c-2.041 1.027-4.139 1.94-6.282 2.73-.907-2.91-2.31-5.644-4.148-8.077 5.283-1 8.76-2.184 12.553-4.336h-4.143c-2.37-.054-4.74.057-7.095.333v-6.669c2.359.218 4.727.308 7.095.268h10.916v-1.671h-5.016c-2.076-.04-4.152.049-6.216.267v-5.14c2.064.223 4.14.312 6.216.268h5.016v-1.67h-5.016c-2.342-.035-4.685.055-7.019.267v-2.403h-5.239zm11.232-2.73h6.004v-1.72h-7.095v1.736l1.091-.016zm6.888 26.434h24.068v-1.6h-24.068v1.6zm0 5.462h24.068v-1.6h-24.068v1.6zm0 5.674h24.068v-1.671h-24.068v1.671zm21.994-17.422c-.73-.667-.867-.803-1.735-1.6h-16.717c-.666.797-.933.999-1.468 1.6h19.92zm-6.39-21.868H195.9v1.736h6.915v-1.736zm-6.888 6.608v1.671h6.887v-1.693l-6.887.022zm6.887 7.925v-1.671h-6.915v1.67h6.915zm15.828-12.818h.999v-1.715h-7.292v1.736l6.293-.021z"/>
        <path id="umrqtova0p" d="M201.382 1.931l18.362.002c2.544.001 4.607 2.064 4.608 4.608l.002 16.715c.001 2.545-2.062 4.609-4.606 4.609l-.001-.001-18.363-.002c-2.544-.001-4.607-2.064-4.608-4.608l-.002-16.716c-.001-2.544 2.062-4.608 4.607-4.608v.001z"/>
    </defs>
    <g fill="none" fill-rule="evenodd">
        <g fill-rule="nonzero">
            <g>
                <g opacity=".661">
                    <g transform="translate(-54 -72) translate(54 72) translate(5 3)">
                        <use fill="#000" filter="url(#37l72ochya)" xlink:href="#9y2xqcan0b"/>
                        <use fill="#2A651F" xlink:href="#9y2xqcan0b"/>
                    </g>
                    <g transform="translate(-54 -72) translate(54 72) translate(5 3)">
                        <use fill="#000" filter="url(#tss1m45g4c)" xlink:href="#m94yus7ecd"/>
                        <use fill="#2A651F" xlink:href="#m94yus7ecd"/>
                    </g>
                    <g transform="translate(-54 -72) translate(54 72) translate(5 3)">
                        <use fill="#000" filter="url(#6zx1byiihe)" xlink:href="#as05xno26f"/>
                        <use fill="#2A651F" xlink:href="#as05xno26f"/>
                    </g>
                    <g transform="translate(-54 -72) translate(54 72) translate(5 3)">
                        <use fill="#000" filter="url(#mswwq7ebng)" xlink:href="#a2pvbtey9h"/>
                        <use fill="#2A651F" xlink:href="#a2pvbtey9h"/>
                    </g>
                    <g transform="translate(-54 -72) translate(54 72) translate(5 3)">
                        <use fill="#000" filter="url(#zfvvtgfoii)" xlink:href="#wj4bxkgegj"/>
                        <use fill="#2A651F" xlink:href="#wj4bxkgegj"/>
                    </g>
                    <g transform="translate(-54 -72) translate(54 72) translate(5 3)">
                        <use fill="#000" filter="url(#cw3wg8pl8k)" xlink:href="#t8xhdyer4l"/>
                        <use fill="#2A651F" xlink:href="#t8xhdyer4l"/>
                    </g>
                    <g transform="translate(-54 -72) translate(54 72) translate(5 3)">
                        <use fill="#000" filter="url(#vc9av5rlrm)" xlink:href="#bzwis1gkgn"/>
                        <use fill="#2A651F" xlink:href="#bzwis1gkgn"/>
                    </g>
                    <g transform="translate(-54 -72) translate(54 72) translate(5 3) rotate(8.38 210.564 14.897)">
                        <use fill="#000" filter="url(#tm0e360n2o)" xlink:href="#umrqtova0p"/>
                        <use fill="#609A56" xlink:href="#umrqtova0p"/>
                    </g>
                </g>
                <path fill="#FFF" d="M40.15 31.027l-1.735 3.354h22.982V85H0l6.146-50.619H22.65l1.734-3.343H4.14L6.212 19H63v12.038l-22.85-.011zm7.842 41.257v-6.621H15.815l-.736 6.62h32.913zm0-25.947H17.904l-.736 6.566h30.824v-6.566zM106.456 58.993h23.118V84h-17.79l.336-2.133h-3.643l-.27-3.132-25.353 1.064v-8.267l9.308-.47.132-4.665h-9.908L80.091 84H66l3.374-25.007h23.261l.066-2.264h-22.05l3.572-25.21h53.337v25.21h-21.038l-.066 2.264zM131 18.801v9.052h-7.348v1.8h-13.827v-1.8H91.892l-.407 1.8H77.664l.407-1.8h-6.545l2.092-9.052h6.27L80.294 17h13.887l-.402 1.8h16.045V17h13.827v1.8H131zM92.971 49.657l.132-2.4h-7.1l-.336 2.4h7.304zm-5.802-11.268l-.335 2.401h6.473l.137-2.4H87.17zm28.59 28.008h-10.046l-.203 4.731 2.697-.13-.27-3.335h5.934l.61 7.4h1.278v-8.666zm-2.158-16.74v-2.4h-6.682l-.138 2.4h6.82zm0-11.268h-6.335l-.138 2.401h6.473v-2.4zM180.545 84L165.406 51.667 146.271 84 130 84 152.406 46.201 133.065 46.201 135.133 33.267 158.471 33.267 158.471 17 172.211 17 172.211 33.267 195.075 33.267 195.075 46.201 178.33 46.201 196 84zM218.1 49.512h1.19L216.13 84h-13.083L205 62.795h-6.792l8.942-21.265h-5.963l2.288-11.892h23.04L218.1 49.512zm2.15-4.318h5.042v20.597h-5.042V45.194zM264 73.234h-11.893V84h-13.309V73.234h-13.303l3.16-47.44h10.143V17.22h13.309v8.574H264v47.44zm-26.678-12.69h3.84V55.16h-3.56l-.28 5.383zm1.169-22.793l-.269 5.317h2.957v-5.317h-2.688zm15.053 0h-3.363v5.317h3.363v-5.317zm0 22.793V55.16h-3.363v5.383h3.363zM218.029 27.73l-14.4-2.12c-1.73-.252-3.287-1.174-4.33-2.564-1.042-1.39-1.484-3.134-1.228-4.848l1.887-12.63c.533-3.562 3.878-6.023 7.472-5.497l14.406 2.104c1.728.252 3.284 1.175 4.325 2.565 1.041 1.39 1.482 3.133 1.226 4.846l-1.887 12.63c-.252 1.714-1.181 3.258-2.583 4.292-1.401 1.034-3.16 1.474-4.888 1.222zM88.94 145.297l-20.537-.159-.625 10.668L60.564 164 42.77 152.993l8.7.311-.471-8.33-21.87-.235-.648-4.818 22.183-.78-.154-3.502-26.33-.393L23 128.144l27.06-.824-.16-3.278-19.988-.311-.708-5.217 9.325-.235-5.875-9.586 3.506-3.895c-4.86-.52-8.23-1.093-10.11-1.715 3.394-.365 12.512-2.311 27.356-5.84C68.249 93.714 77.5 91.3 81.162 90l9.561 12.017c-3.118.863-6.285 1.54-9.484 2.027l7.548 3.064c-2.474 4.066-5.887 7.484-9.956 9.97l11.678-.312-.548 9.286 5.019-.158L96 136.333l-6.583-.077-.477 9.04zM50.608 114.16l-4.311 3.873 10.268-.311-5.332-8.74 2.902-3.119c-5.226-.047-10.528-.359-15.907-.934l12.38 9.231zm25.233-9.346c-5.675.653-11.38 1.017-17.093 1.093l9.019 5.375-6.183 6.287 8.854-.235c1.887-3.113 3.692-7.292 5.414-12.536l-.01.016zm-7.131 33.644l6.824-.235-.16-2.185-6.505-.077-.159 2.497zm.708-11.761l5.485-.153-.154-2.185-5.255-.077-.076 2.415zM124.677 142.58h10.23v13.498h-10.23v1.608h9.827v6.148h-9.827v2.139h-12.175v-2.139H100l1.933-6.148h10.564v-1.608H101.07l2.004-13.498h9.428v-1.674h-8.424l1.005-5.546h-2.73l2.075-5.88h1.741l.262-1.608h10.772L117 129.48h5.885v-1.608h10.766v1.608h2.342v5.88h-2.342v5.546h-8.975v1.674zm-20.397-15.977l2.004-4.922h18.256v4.922h-20.26zM165 107.088v7.483h-13.649v-2.27h-10.023v14.302h-13.78v-14.302h-8.09l-.601 2.27h-13.91l2.341-7.483h20.26v-1.203h-20.2l2.004-5.885h54.441v5.885h-22.465v1.203H165zm-40.46 13.433h-19.26l2.074-4.747h17.186v4.747zm-13.506 30.214h3.275v-2.877h-2.942l-.333 2.877zm5.35-15.375l-.202 1.537h6.688v-1.537h-6.486zm9.494 12.498h-3.008v2.877h3.008v-2.877zm11.705-19.05h26.281V166h-15.182l2.009-7.488h1.736v-2.871h-5.148L146.733 166h-11.225l2.075-37.192zm7.96-13.034h18.79v4.747h-20.865l2.075-4.747zm0 5.885h18.79v4.923h-20.865l2.075-4.923zm6.884 27.67v-2.871h-4.679l-.136 2.871h4.815zm-4.21-12.23l-.136 2.872h4.368v-2.872h-4.231zM169.06 114.346c.272-1.547.384-3.117.336-4.687v-2.431c.04-1.498-.05-2.997-.27-4.48 2.155.198 4.309.264 8.078.264h16.562c.027-1.011-.064-2.022-.27-3.012h11.243c-.198.992-.31 2-.335 3.012h17.584c3.847 0 5.99-.066 8.144-.263-.222 1.482-.312 2.98-.27 4.479v2.41c-.06 1.576.05 3.155.33 4.708h-4.984v2.41c-2.327-.215-4.664-.304-7-.269h-5.6v1.643h5.385c2.092.046 4.184-.042 6.265-.263v5.153c-2.081-.217-4.173-.307-6.265-.268h-5.385v1.642h11.243c2.359.061 4.72-.003 7.072-.191v6.669c-2.344-.281-4.706-.393-7.067-.334h-4.445c3.997 1.88 8.232 3.208 12.589 3.948-1.656 2.478-2.99 5.155-3.973 7.967-3.297-1.205-4.44-1.741-6.39-2.612v7.765c0 4.347.065 5.82.269 7.156-2.198-.13-2.748-.13-6.732-.13h-1.099c4.308 1.138 9.891 1.806 17.502 2.14-2.896 2.81-4.039 4.216-5.792 7.228-10.028-1.407-16.09-3.077-23.359-6.691l6.045-2.678h-18.606l6.192 2.612c-7.143 3.833-12.638 5.476-22.529 6.757-1.55-2.41-2.747-3.882-5.792-6.96 7.693-.334 12.859-1.095 17.035-2.409h-.737c-3.907 0-4.445 0-6.802.131.227-2.155.317-4.322.269-6.488v-8.033c-2.054 1.032-4.166 1.947-6.325 2.738-.913-2.916-2.326-5.652-4.176-8.088 5.32-1.007 8.792-2.19 12.638-4.38h-4.17c-2.386-.051-4.773.06-7.144.334v-6.642c2.375.218 4.76.308 7.144.268h10.99v-1.643h-5.05c-2.09-.04-4.18.05-6.259.269v-5.202c2.079.217 4.17.305 6.259.262h5.05v-1.642h-5.05c-2.359-.037-4.718.052-7.067.268v-2.437h-5.28zm11.31-2.738h6.044v-1.746h-7.144v1.746h1.1zm6.961 26.492h24.233v-1.604h-24.233v1.604zm0 5.476h24.233v-1.61h-24.233v1.61zm0 5.683h24.233v-1.67h-24.233v1.67zm22.145-17.462l-1.775-1.571h-16.83c-.671.805-.94 1.007-1.479 1.61l20.084-.039zm-6.49-21.935h-6.929v1.746h6.93v-1.746zm-6.929 6.625v1.643h6.93v-1.643h-6.93zm6.93 7.962v-1.643h-6.93v1.643h6.93zm15.935-12.846h1.011v-1.741h-7.325v1.746l6.314-.005z" transform="translate(-54 -72) translate(54 72)"/>
                <g fill="#609A56">
                    <path d="M4.921 0l4.905.988-.065.05.03-.014.011.011.024-.011-.007.028.052.052-.045-.08 4.892.959 3.24 4.844-5.427-1.084-.018-.031-.431.01.454.092-.057.154.095-.165 5.384 1.072-10.799 8.45-.006.035-.006-.025-.016.025-.003-.011-.013.011.011-.02-.04-.187.03.207L.338 3.413l5.277 1.084.012.085.01-.133-.107-.045-.041.033L0 3.345V3.31L4.921 0z" transform="translate(-54 -72) translate(54 72) translate(203 7)"/>
                </g>
                <path fill="#609A56" d="M204.137 7c.313-.72 1.038-1.204 1.863-1.246-.72-.331-1.194-1.001-1.242-1.754-.308.671-.984 1.128-1.758 1.187.714.352 1.155 1.054 1.137 1.813zM203 17.594c.959.467 1.551 1.399 1.529 2.406.412-.948 1.374-1.59 2.471-1.651-1.218-.816-1.34-.992-1.63-2.349-.406.904-1.321 1.52-2.37 1.594zM221.529 11c.412-.949 1.375-1.591 2.471-1.648-1.218-.822-1.335-.993-1.63-2.352-.408.903-1.323 1.517-2.37 1.591.958.468 1.55 1.401 1.529 2.409zM218.525 23c.416-.948 1.378-1.59 2.475-1.652-1.218-.818-1.31-.988-1.63-2.348-.415.891-1.33 1.493-2.37 1.561.97.473 1.562 1.42 1.525 2.439z" transform="translate(-54 -72) translate(54 72)"/>
            </g>
        </g>
    </g>
</svg>
