<svg xmlns="http://www.w3.org/2000/svg" xmlns:xlink="http://www.w3.org/1999/xlink" width="1122" height="221" viewBox="0 0 1122 221">
    <defs>
        <filter id="kuq9u7njsa" width="109.5%" height="109.1%" x="-4.8%" y="-3.3%" filterUnits="objectBoundingBox">
            <feOffset dy="2" in="SourceAlpha" result="shadowOffsetOuter1"/>
            <feGaussianBlur in="shadowOffsetOuter1" result="shadowBlurOuter1" stdDeviation="2"/>
            <feColorMatrix in="shadowBlurOuter1" values="0 0 0 0 0 0 0 0 0 0 0 0 0 0 0 0 0 0 0.5 0"/>
        </filter>
        <filter id="bjskwfi44c" width="109.3%" height="109%" x="-4.7%" y="-3.2%" filterUnits="objectBoundingBox">
            <feOffset dy="2" in="SourceAlpha" result="shadowOffsetOuter1"/>
            <feGaussianBlur in="shadowOffsetOuter1" result="shadowBlurOuter1" stdDeviation="2"/>
            <feColorMatrix in="shadowBlurOuter1" values="0 0 0 0 0 0 0 0 0 0 0 0 0 0 0 0 0 0 0.5 0"/>
        </filter>
        <filter id="xfri8hi3ae" width="109.1%" height="109%" x="-4.5%" y="-3.2%" filterUnits="objectBoundingBox">
            <feOffset dy="2" in="SourceAlpha" result="shadowOffsetOuter1"/>
            <feGaussianBlur in="shadowOffsetOuter1" result="shadowBlurOuter1" stdDeviation="2"/>
            <feColorMatrix in="shadowBlurOuter1" values="0 0 0 0 0 0 0 0 0 0 0 0 0 0 0 0 0 0 0.5 0"/>
        </filter>
        <filter id="32iix8bbmg" width="109.2%" height="109%" x="-4.6%" y="-3.2%" filterUnits="objectBoundingBox">
            <feOffset dy="2" in="SourceAlpha" result="shadowOffsetOuter1"/>
            <feGaussianBlur in="shadowOffsetOuter1" result="shadowBlurOuter1" stdDeviation="2"/>
            <feColorMatrix in="shadowBlurOuter1" values="0 0 0 0 0 0 0 0 0 0 0 0 0 0 0 0 0 0 0.5 0"/>
        </filter>
        <filter id="1elhljlz1i" width="108.3%" height="108.1%" x="-4.1%" y="-2.9%" filterUnits="objectBoundingBox">
            <feOffset dy="2" in="SourceAlpha" result="shadowOffsetOuter1"/>
            <feGaussianBlur in="shadowOffsetOuter1" result="shadowBlurOuter1" stdDeviation="2"/>
            <feColorMatrix in="shadowBlurOuter1" values="0 0 0 0 0 0 0 0 0 0 0 0 0 0 0 0 0 0 0.5 0"/>
        </filter>
        <filter id="eseuwkrk9k" width="109.3%" height="109.1%" x="-4.6%" y="-3.3%" filterUnits="objectBoundingBox">
            <feOffset dy="2" in="SourceAlpha" result="shadowOffsetOuter1"/>
            <feGaussianBlur in="shadowOffsetOuter1" result="shadowBlurOuter1" stdDeviation="2"/>
            <feColorMatrix in="shadowBlurOuter1" values="0 0 0 0 0 0 0 0 0 0 0 0 0 0 0 0 0 0 0.5 0"/>
        </filter>
        <filter id="w84na1l9zm" width="109.3%" height="109.4%" x="-4.7%" y="-3.4%" filterUnits="objectBoundingBox">
            <feOffset dy="2" in="SourceAlpha" result="shadowOffsetOuter1"/>
            <feGaussianBlur in="shadowOffsetOuter1" result="shadowBlurOuter1" stdDeviation="2"/>
            <feColorMatrix in="shadowBlurOuter1" values="0 0 0 0 0 0 0 0 0 0 0 0 0 0 0 0 0 0 0.5 0"/>
        </filter>
        <filter id="eki99kv2eo" width="121.8%" height="123.2%" x="-10.9%" y="-8.3%" filterUnits="objectBoundingBox">
            <feOffset dy="2" in="SourceAlpha" result="shadowOffsetOuter1"/>
            <feGaussianBlur in="shadowOffsetOuter1" result="shadowBlurOuter1" stdDeviation="2"/>
            <feColorMatrix in="shadowBlurOuter1" values="0 0 0 0 0 0 0 0 0 0 0 0 0 0 0 0 0 0 0.5 0"/>
        </filter>
        <path id="cx72m3h9jb" d="M93.535 82.49l-4.053 7.762h53.5V207.78H0L14.319 90.277h38.458l4.027-7.787H9.644l4.827-27.947h132.323V82.49h-53.26zm18.206 95.794v-15.371H36.883l-1.715 15.37h76.573zm0-60.238h-70.03l-1.715 15.244h71.745v-15.244z"/>
        <path id="y9m6ensjqd" d="M246.682 149.588h53.361v58.218H258.98l.775-4.98h-8.41l-.623-7.279-58.52 2.54v-19.32l21.485-1.08.305-10.874h-22.87l-5.298 40.993H153.3l7.776-58.218h53.704l.153-5.285h-50.897l8.246-58.675h123.163v58.675h-48.61l-.152 5.285zm56.652-93.61v21.113h-16.962v4.192h-31.915v-4.192h-41.393l-.94 4.192H180.22l.94-4.192h-15.106l4.879-21.112h14.471l.94-4.192H218.4l-.927 4.192h37.035v-4.192h31.915v4.192h16.91zm-87.78 71.875l.305-5.59H199.52l-.775 5.59h16.81zm-13.39-26.232l-.776 5.59h14.941l.318-5.59h-14.484zm65.99 65.192h-23.188l-.47 11.026 6.226-.317-.623-7.762h13.696l1.41 17.238h2.948v-20.185zm-4.981-38.96v-5.59h-15.399l-.317 5.59h15.716zm0-26.232h-14.624l-.317 5.59h14.94v-5.59z"/>
        <path id="4ei9p1qgkf" d="M423.168 207.806L387.835 132.515 343.177 207.806 305.201 207.806 357.495 119.774 312.354 119.774 317.182 89.667 371.674 89.667 371.674 51.787 403.742 51.787 403.742 89.667 457.103 89.667 457.103 119.774 418.035 119.774 459.339 207.806z"/>
        <path id="6klsvqagkh" d="M507.987 127.23h2.808l-7.318 80.576h-30.353l4.51-49.542H461.88l20.697-49.682h-13.849l5.298-27.781h53.362l-19.401 46.43zm4.98-10.086h11.676v48.12h-11.676v-48.12zm101.374 65.51h-27.595v25.152h-30.848v-25.152h-30.785l7.306-110.847h23.479v-20.02h30.822v20.02h27.621v110.847zm-61.785-29.65h8.894V140.43h-8.246l-.648 12.576zm2.643-53.25l-.623 12.423h6.848V99.754H555.2zm34.863 0h-7.789v12.423h7.789V99.754zm0 53.25V140.43h-7.789v12.576h7.789z"/>
        <path id="6pa1hompkj" d="M775.289 163.866l-47.568-.356-1.448 24.81-16.707 19.054-41.216-25.533 20.15.724-1.092-19.385-50.655-.546-1.449-11.23 51.38-1.804-.356-8.155-60.984-.902-2.732-16.514 62.649-1.982-.369-7.621-46.297-.725-1.664-12.156 21.598-.547-13.607-22.255 8.17-9.057c-11.257-1.212-19.062-2.537-23.416-3.977 7.869-.846 28.989-5.377 63.36-13.592 34.372-8.214 55.797-13.83 64.275-16.844L779.47 63.22c-7.224 1.999-14.559 3.572-21.967 4.712l17.431 7.241c-5.732 9.452-13.638 17.4-23.06 23.183l27.05-.724-1.271 21.595 11.625-.368 2.363 24.263-15.246-.178-1.105 20.922zm-88.783-72.484l-9.986 9.058 23.784-.725-12.35-20.324 6.721-7.241c-12.103-.127-24.385-.851-36.844-2.172l28.675 21.404zm58.443-21.735c-13.145 1.518-26.358 2.366-39.589 2.541l20.887 12.5-14.318 14.697 20.57-.533c4.327-7.25 8.486-16.972 12.476-29.166l-.026-.039zm-16.516 78.238l15.792-.533-.356-5.081-15.055-.077-.381 5.691zm1.651-27.286l12.705-.368-.355-5.081-12.172-.178-.178 5.627z"/>
        <path id="vol4rcbwol" d="M857.16 153.462h23.81v31.364h-23.81v3.722h22.87v14.278h-22.87v4.98h-28.332v-4.98h-29.107l4.523-14.278h24.584v-3.722h-26.68l4.675-31.364h21.942v-3.874h-19.54l2.324-12.894h-6.352l4.828-13.656h4.04l.622-3.722h25.042l-.47 3.722h13.696v-3.71h25.054v3.723h5.45v13.656h-5.45V149.6H857.16v3.862zm-47.478-37.093l4.675-11.433h42.486v11.433h-47.161zm141.343-45.312v17.365h-31.762v-5.284H895.91v33.231h-32.068V83.138h-18.829l-1.397 5.284H811.27l5.425-17.365h47.148v-2.794h-47.009l4.676-13.72h126.695v13.694H895.91v2.82h55.114zm-94.182 31.174h-44.824l4.828-11.014h39.996v11.014zm-31.433 70.171h7.623v-6.669h-6.848l-.775 6.67zm12.451-35.708l-.47 3.582h15.564v-3.582h-15.094zm22.094 29.04h-7v6.668h7v-6.669zm27.24-44.246h61.162v86.381h-35.332l4.675-17.403h4.104v-6.733h-11.981l-1.27 24.136h-26.135l4.777-86.38zm18.524-30.27h43.731v11.013h-48.559l4.828-11.014zm0 13.655h43.731v11.433h-48.559l4.828-11.433zm16.085 64.277v-6.63h-10.888l-.318 6.681 11.206-.05zm-9.809-28.416l-.304 6.681h10.164v-6.681h-9.86z"/>
        <path id="em8ehkl84n" d="M960.186 89.032c.626-3.584.886-7.224.775-10.86v-5.59c.093-3.48-.115-6.96-.623-10.404 4.98.47 9.961.622 18.677.622h38.293c.063-2.345-.146-4.69-.623-6.986h25.995c-.459 2.302-.718 4.64-.775 6.986h40.656c8.894 0 13.849-.152 18.829-.622-.513 3.443-.722 6.924-.623 10.404v5.59c-.123 3.637.136 7.277.775 10.86h-11.51v5.59c-5.381-.491-10.784-.699-16.187-.623h-12.959v3.887h12.451c4.832.111 9.666-.097 14.471-.622v11.903c-4.806-.505-9.639-.713-14.47-.623h-12.452v3.887h25.995c5.453.082 10.907-.126 16.338-.622v15.523c-5.42-.66-10.88-.919-16.338-.775h-10.279c9.24 4.364 19.033 7.445 29.108 9.159-3.83 5.744-6.917 11.95-9.186 18.47-7.623-2.795-10.266-4.04-14.776-6.047v18c0 10.163.152 13.504.622 16.616-5.082-.317-6.352-.317-15.563-.317h-2.541c9.96 2.642 22.869 4.192 40.465 4.98-6.695 6.516-9.338 9.768-13.39 16.754-23.188-3.251-37.201-7.139-54.01-15.523l13.976-6.211h-43.033l14.32 6.059c-16.517 8.892-29.223 12.703-52.092 15.675-3.583-5.589-6.352-8.993-13.39-16.145 17.786-.775 29.729-2.54 39.385-5.59h-1.703c-9.033 0-10.278 0-15.728.318.525-5.004.733-10.036.622-15.066v-18.571c-4.751 2.39-9.634 4.51-14.623 6.351-2.112-6.772-5.379-13.128-9.656-18.788 12.298-2.324 20.391-5.08 29.221-10.086h-9.643c-5.517-.125-11.035.134-16.516.775v-15.51c5.49.507 11.003.714 16.516.622h25.41v-3.887h-11.676c-4.832-.094-9.665.114-14.47.622V97.264c4.805.517 9.638.725 14.47.622h11.676V94h-11.676c-5.453-.079-10.907.129-16.338.623v-5.59h-12.197zm26.147-6.351h13.975v-4.002h-16.516v4.04l2.54-.038zm16.034 61.482h56.029v-3.722h-56.03v3.722zm0 12.703h56.029v-3.722h-56.03v3.722zm0 13.199h56.029v-3.887h-56.03v3.887zm51.201-40.523c-1.702-1.55-2.02-1.867-4.04-3.722h-38.916c-1.55 1.855-2.172 2.325-3.417 3.722h46.373zM1038.69 78.68h-16.097v4.04h16.097v-4.04zm-16.033 15.37v3.888h16.033v-3.938l-16.033.05zm16.033 18.433v-3.887h-16.097v3.887h16.097zm36.845-29.814h2.325v-3.989h-16.974v4.04l14.65-.051z"/>
        <path id="zarr5wrdfp" d="M469.594 4.493h41.159c6.362-.001 11.52 5.156 11.52 11.519l-.001 37.274c-.001 6.362-5.158 11.52-11.52 11.52l-41.16.001c-6.361.001-11.52-5.156-11.52-11.519h.001l.001-37.274c0-6.363 5.158-11.52 11.52-11.52z"/>
    </defs>
    <g fill="none" fill-rule="evenodd">
        <g fill-rule="nonzero">
            <g>
                <g opacity=".661">
                    <g transform="translate(-401 -142) translate(401 142) translate(12 6.4)">
                        <use fill="#000" filter="url(#kuq9u7njsa)" xlink:href="#cx72m3h9jb"/>
                        <use fill="#2A651F" xlink:href="#cx72m3h9jb"/>
                    </g>
                    <g transform="translate(-401 -142) translate(401 142) translate(12 6.4)">
                        <use fill="#000" filter="url(#bjskwfi44c)" xlink:href="#y9m6ensjqd"/>
                        <use fill="#2A651F" xlink:href="#y9m6ensjqd"/>
                    </g>
                    <g transform="translate(-401 -142) translate(401 142) translate(12 6.4)">
                        <use fill="#000" filter="url(#xfri8hi3ae)" xlink:href="#4ei9p1qgkf"/>
                        <use fill="#2A651F" xlink:href="#4ei9p1qgkf"/>
                    </g>
                    <g transform="translate(-401 -142) translate(401 142) translate(12 6.4)">
                        <use fill="#000" filter="url(#32iix8bbmg)" xlink:href="#6klsvqagkh"/>
                        <use fill="#2A651F" xlink:href="#6klsvqagkh"/>
                    </g>
                    <g transform="translate(-401 -142) translate(401 142) translate(12 6.4)">
                        <use fill="#000" filter="url(#1elhljlz1i)" xlink:href="#6pa1hompkj"/>
                        <use fill="#2A651F" xlink:href="#6pa1hompkj"/>
                    </g>
                    <g transform="translate(-401 -142) translate(401 142) translate(12 6.4)">
                        <use fill="#000" filter="url(#eseuwkrk9k)" xlink:href="#vol4rcbwol"/>
                        <use fill="#2A651F" xlink:href="#vol4rcbwol"/>
                    </g>
                    <g transform="translate(-401 -142) translate(401 142) translate(12 6.4)">
                        <use fill="#000" filter="url(#w84na1l9zm)" xlink:href="#em8ehkl84n"/>
                        <use fill="#2A651F" xlink:href="#em8ehkl84n"/>
                    </g>
                    <g transform="translate(-401 -142) translate(401 142) translate(12 6.4) rotate(8.38 490.173 34.65)">
                        <use fill="#000" filter="url(#eki99kv2eo)" xlink:href="#zarr5wrdfp"/>
                        <use fill="#609A56" xlink:href="#zarr5wrdfp"/>
                    </g>
                </g>
                <path fill="#FFF" d="M93.3 71.19l-4.03 7.806h53.404V196.8H0L14.283 78.996h38.349l4.03-7.78H9.619L14.435 43.2H146.4v28.015l-53.1-.025zm18.224 96.016v-15.409H36.752l-1.71 15.409h76.482zm0-60.386H41.606l-1.711 15.281h71.629v-15.28zM246.41 137.775h53.491V196h-41.163l.777-4.968h-8.43l-.625-7.292-58.662 2.477V166.97l21.536-1.093.306-10.862h-22.925L185.405 196H152.8l7.807-58.225h53.823l.153-5.273h-51.021l8.266-58.695H295.24v58.695h-48.677l-.153 5.273zm56.79-93.582v21.076h-17.003v4.193h-31.993v-4.193H212.71l-.942 4.193h-31.98l.942-4.193h-15.143l4.84-21.076h14.506l.943-4.193h32.133l-.93 4.193h37.125V40h31.993v4.193H303.2zm-87.993 71.844l.305-5.59h-16.43l-.776 5.59h16.9zm-13.424-26.235l-.777 5.59h14.978l.318-5.59h-14.52zm66.15 65.213h-23.242l-.472 11.015 6.241-.305-.624-7.763h13.73l1.413 17.228h2.955v-20.175zm-4.992-38.978v-5.59H247.48l-.319 5.59h15.78zm0-26.235h-14.659l-.318 5.59h14.977v-5.59zM423.045 196L387.629 120.718 342.865 196 304.8 196 357.218 107.991 311.97 107.991 316.809 77.876 371.404 77.876 371.404 40 403.548 40 403.548 77.876 457.035 77.876 457.035 107.991 417.862 107.991 459.2 196zM508.134 115.527h2.756L503.575 196h-30.291l4.521-49.479h-15.723l20.702-49.618h-13.806l5.296-27.747h53.343l-19.483 46.37zm4.979-10.074h11.672v48.059h-11.672v-48.059zM614.4 170.88h-27.535V196h-30.812v-25.12h-30.798l7.315-110.693h23.483V40.179h30.812v20.008H614.4V170.88zm-61.763-29.611h8.89v-12.56h-8.242l-.648 12.56zm2.705-53.184l-.622 12.408h6.846V88.085h-6.224zm34.85 0h-7.785v12.408h7.786V88.085zm0 53.184v-12.56h-7.785v12.56h7.786zM507.97 64.703l-33.339-4.948c-4.003-.586-7.608-2.738-10.022-5.982-2.413-3.243-3.436-7.312-2.844-11.31l4.37-29.472C467.367 4.68 475.11-1.06 483.431.165l33.351 4.91c4 .589 7.603 2.742 10.014 5.985 2.41 3.244 3.432 7.311 2.84 11.307l-4.37 29.472c-.584 3.998-2.735 7.6-5.98 10.013-3.244 2.413-7.316 3.439-11.318 2.851zM774.876 152.527l-47.49-.368-1.446 24.796L709.26 196l-41.147-25.584 20.117.724-1.09-19.362-50.572-.546-1.497-11.198 51.295-1.816-.355-8.138-60.884-.915-2.727-16.505 62.57-1.917-.367-7.618-46.221-.724-1.636-12.125 21.563-.546-13.585-22.282 8.105-9.053c-11.238-1.21-19.03-2.54-23.377-3.987 7.848-.846 28.933-5.37 63.256-13.572C727.031 32.634 748.425 27.022 756.89 24l22.108 27.932c-7.21 2.005-14.534 3.577-21.93 4.71l17.452 7.124c-5.72 9.45-13.612 17.394-23.021 23.17l27.004-.723-1.268 21.584 11.606-.368 2.359 24.263-15.22-.178-1.104 21.013zm-88.637-72.37l-9.97 9.002 23.745-.724-12.329-20.315 6.71-7.25c-12.084-.11-24.345-.833-36.784-2.17l28.628 21.457zm58.347-21.724c-13.123 1.517-26.315 2.364-39.524 2.54l20.853 12.493-14.295 14.613 20.472-.546c4.363-7.237 8.536-16.95 12.52-29.138l-.026.038zm-16.49 78.198l15.78-.546-.368-5.079-15.044-.177-.367 5.802zm1.637-27.336l12.684-.355-.355-5.079-12.152-.178-.177 5.612zM857.402 142.295H881.2v31.415h-23.798v3.742h22.859v14.307H857.4v4.977h-28.32v-4.977H800l4.496-14.307h24.573v-3.742h-26.58l4.66-31.415h21.933V138.4h-19.595l2.336-12.907h-6.35l4.826-13.684h4.051l.61-3.742h25.056l-.47 3.742h13.69v-3.742h25.044v3.742h5.448v13.684h-5.448V138.4h-20.878v3.895zm-47.446-37.181l4.661-11.457h42.467v11.457h-47.128zM951.2 59.697V77.11h-31.749v-5.283h-23.316v33.287h-32.053V71.827H845.26l-1.397 5.283h-32.358l5.448-17.413h47.128v-2.8h-46.989l4.661-13.697h126.64v13.696h-52.259v2.8H951.2zm-94.116 31.262H812.28l4.826-11.049h39.978V90.96zm-31.418 70.315h7.62v-6.696h-6.846l-.774 6.696zm12.445-35.781l-.47 3.576h15.557v-3.576h-15.087zm22.085 29.085h-6.998v6.696h6.998v-6.696zm27.227-44.335h61.136V196.8H913.24l4.674-17.426h4.038v-6.683h-11.976l-1.27 24.109h-26.11l4.826-86.557zM905.94 79.91h43.712V90.96h-48.538l4.826-11.049zm0 13.697h43.712v11.456h-48.538l4.826-11.456zm16.014 64.395v-6.682H911.07l-.318 6.682h11.201zm-9.791-28.462l-.318 6.683h10.16v-6.683h-9.842zM959.968 77.355c.627-3.597.887-7.248.776-10.898v-5.652c.093-3.483-.115-6.967-.623-10.414 4.984.458 9.968.611 18.69.611h38.321c.062-2.35-.147-4.7-.623-7.002h26.014c-.458 2.307-.718 4.65-.775 7.002h40.686c8.9 0 13.859-.153 18.843-.611-.514 3.446-.722 6.931-.623 10.414v5.602c-.14 3.666.116 7.337.763 10.948h-11.532v5.602c-5.385-.498-10.792-.706-16.198-.624h-12.957v3.82h12.46c4.84.106 9.682-.098 14.495-.612v11.98c-4.814-.505-9.655-.713-14.494-.624h-12.46v3.82h26.013c5.459.141 10.921-.007 16.364-.446v15.506c-5.424-.654-10.889-.913-16.35-.776h-10.287c9.249 4.37 19.048 7.457 29.129 9.179-3.83 5.762-6.92 11.986-9.193 18.523-7.628-2.8-10.273-4.048-14.787-6.072v18.052c0 10.109.153 13.533.623 16.64-5.085-.306-6.357-.306-15.575-.306h-2.543c9.968 2.648 22.886 4.201 40.496 4.978-6.7 6.531-9.345 9.803-13.401 16.805-23.204-3.272-37.228-7.155-54.05-15.557l13.986-6.226h-43.05l14.328 6.073c-16.529 8.912-29.243 12.73-52.13 15.71-3.585-5.602-6.356-9.026-13.4-16.181 17.8-.777 29.752-2.546 39.415-5.602h-1.704c-9.04 0-10.286 0-15.74.306.526-5.01.734-10.05.622-15.086V137.56c-4.752 2.4-9.638 4.526-14.634 6.366-2.113-6.78-5.383-13.141-9.663-18.804 12.308-2.343 20.343-5.092 29.243-10.185h-9.65c-5.52-.118-11.043.141-16.529.777V100.27c5.494.508 11.012.716 16.53.624h25.428v-3.82h-11.685c-4.835-.093-9.672.115-14.481.624V85.605c4.81.506 9.646.71 14.481.611h11.685v-3.82h-11.685c-5.457-.085-10.915.123-16.35.625v-5.666h-12.22zm26.166-6.365h13.986v-4.061h-16.528v4.06h2.542zm16.11 61.592h56.07v-3.73h-56.07v3.73zm0 12.731h56.07v-3.743h-56.07v3.743zm0 13.215h56.07v-3.883h-56.07v3.883zm51.24-40.599l-4.108-3.654h-38.944c-1.551 1.872-2.174 2.343-3.42 3.743l46.471-.089zm-15.017-51h-16.033v4.06h16.033v-4.06zm-16.033 15.404v3.82h16.033v-3.82h-16.033zm16.033 18.51v-3.818h-16.033v3.819h16.033zm36.872-29.866h2.34v-4.048h-16.949v4.06l14.61-.012z" transform="translate(-401 -142) translate(401 142)"/>
                <g fill="#609A56">
                    <path d="M11.62 0L23.2 2.315l-.145.113.064-.028.025.024.056-.024-.014.066.123.123L23.2 2.4l11.55 2.248L42.4 16l-12.813-2.54-.042-.073-1.021.025 1.076.213-.132.356.22-.381L42.4 16.114 16.903 35.918l-.015.082-.013-.057-.038.057-.006-.026-.031.024V36L.8 8l12.461 2.54.028.199.024-.31-.253-.106-.098.077L0 7.839V7.76L11.62 0z" transform="translate(-401 -142) translate(401 142) translate(473.6 15.2)"/>
                </g>
                <path fill="#609A56" d="M476.825 16.8c.668-1.535 2.216-2.57 3.975-2.657-1.535-.707-2.547-2.137-2.65-3.743-.656 1.432-2.099 2.406-3.75 2.533 1.524.75 2.464 2.248 2.425 3.867zM472 41.745c2.301 1.213 3.722 3.636 3.669 6.255.99-2.465 3.299-4.136 5.931-4.293-2.923-2.122-3.216-2.579-3.913-6.107-.973 2.35-3.17 3.952-5.687 4.145zM514.869 25.6c.99-2.467 3.3-4.137 5.931-4.286-2.923-2.137-3.204-2.581-3.913-6.114-.978 2.347-3.174 3.944-5.687 4.138 2.299 1.216 3.72 3.641 3.669 6.262zM508.65 52c.832-1.896 2.756-3.18 4.95-3.305-2.435-1.634-2.619-1.975-3.26-4.695-.83 1.783-2.658 2.987-4.74 3.122 1.939.945 3.124 2.841 3.05 4.878z" transform="translate(-401 -142) translate(401 142)"/>
            </g>
        </g>
    </g>
</svg>
